<?xml version="1.0" encoding="UTF-8"?>
<svg width="256px" height="256px" viewBox="0 0 256 256" version="1.1" xmlns="http://www.w3.org/2000/svg" xmlns:xlink="http://www.w3.org/1999/xlink">
    <!-- Generator: Sketch 52.6 (67491) - http://www.bohemiancoding.com/sketch -->
    <title>OrdNet favicon</title>
    <desc>Created with Sketch.</desc>
    <defs>
        <polygon id="path-1" points="0 0.817959471 255.182041 0.817959471 255.182041 255.999211 0 255.999211"></polygon>
    </defs>
    <g id="OrdNet-favicon" stroke="none" stroke-width="1" fill="none" fill-rule="evenodd">
        <g id="Group-18" transform="translate(0.000000, -1.000000)">
            <g id="Group-3" transform="translate(0.000000, 0.310132)">
                <mask id="mask-2" fill="white">
                    <use xlink:href="#path-1"></use>
                </mask>
                <g id="Clip-2"></g>
                <path d="M255.182041,128.408585 C255.182041,198.875122 198.057952,255.999211 127.591415,255.999211 C57.1248775,255.999211 -0.000338325991,198.875122 -0.000338325991,128.408585 C-0.000338325991,57.9420476 57.1248775,0.817959471 127.591415,0.817959471 C198.057952,0.817959471 255.182041,57.9420476 255.182041,128.408585" id="Fill-1" fill="#20A38A" mask="url(#mask-2)"></path>
            </g>
            <path d="M97.0444123,85.4125392 C97.0060687,65.3667242 112.781082,49.2883454 132.550597,49.2251912 C152.201699,49.162037 168.386086,65.3780018 168.406386,85.1542837 C168.428941,105.016275 152.409205,121.311182 132.817875,121.354037 C113.082192,121.398019 97.0827559,105.323024 97.0444123,85.4125392" id="Fill-4" fill="#FFFFFF"></path>
            <path d="M225.826284,186.764405 C225.124821,183.816458 225.128204,180.704987 224.740257,177.675841 C222.034777,156.548511 217.436927,135.957991 206.316152,117.443665 C201.172469,108.878379 195.071323,101.045004 185.757209,96.2182203 C182.555517,101.030344 182.896099,104.479013 187.599958,107.420194 C189.575781,108.656211 191.133209,110.657974 192.671464,112.489445 C203.522707,125.415753 208.785931,140.881762 211.741773,157.0763 C214.350266,171.3717 215.799429,185.877991 217.784275,200.46548 C223.48394,197.873903 227.612645,194.275242 225.826284,186.764405" id="Fill-6" fill="#FFFFFF"></path>
            <path d="M83.010763,180.587137 C82.9848247,180.536388 82.9588863,180.484511 82.9318203,180.433762 C83.0412123,180.477744 83.0558731,180.529621 83.010763,180.587137 M86.8891066,188.172405 C99.2244722,185.321445 121.446851,180.419101 133.814922,177.705727 C135.462569,177.344846 137.006463,176.512564 138.598851,175.897938 C138.510886,175.256247 138.424049,174.615683 138.337212,173.973991 C121.071309,171.432035 94.7743577,168.414167 75.0172476,165.723348 C68.6871683,154.184176 62.4833974,142.575084 56.1025692,131.064106 C55.0233093,129.116476 53.2978467,126.452722 51.5193797,126.143718 C41.1553269,124.341568 30.6875207,123.143894 19.9140934,121.696987 C20.1046837,123.223965 20.0133357,123.93896 20.286252,124.46111 C29.8744106,142.80289 39.4794855,161.135648 49.1488423,179.4357 C49.8232388,180.708934 50.8709216,182.526872 51.9817586,182.716335" id="Fill-8" fill="#FFFFFF"></path>
            <path d="M185.437491,135.768867 C184.258989,135.736162 183.080486,135.70233 181.900856,135.669625 C181.234354,138.825078 179.789702,142.043686 180.040063,145.124708 C180.974971,156.645836 183.452645,168.11847 183.498883,179.615915 C183.559781,194.633078 176.945508,200.258312 162.406513,197.874241 C147.144627,195.372885 132.134231,191.3547 116.977226,188.177819 C113.617649,187.472973 109.696451,186.365519 106.728204,187.413202 C94.0951119,191.871211 81.5556229,191.873466 68.791711,188.520656 C67.6154643,188.211651 66.2869709,188.478929 64.1667947,188.478929 C72.6734379,199.666241 91.8001339,203.869378 104.092645,198.729078 C107.963094,197.11188 112.951147,196.632585 117.069702,197.444567 C126.905967,199.385431 136.423077,202.960409 146.267235,204.833607 C156.044856,206.6944 166.049156,207.972144 175.983535,208.206717 C183.824804,208.392796 189.190654,203.143105 190.56313,195.525131 C191.825085,188.520656 192.637068,181.140638 191.851024,174.128268 C190.409755,161.262858 187.649015,148.54744 185.437491,135.768867" id="Fill-10" fill="#FFFFFF"></path>
            <path d="M132.817537,121.35415 C152.408867,121.311295 168.428603,105.016388 168.407175,85.1532687 C168.385748,65.3781145 152.20136,49.1621498 132.550259,49.225304 C112.780744,49.2884581 97.0068581,65.3657093 97.044074,85.412652 C97.0824176,105.323137 113.081854,121.398132 132.817537,121.35415" id="Fill-12" fill="#FFFFFF"></path>
            <path d="M64.167133,188.479154 C66.2873093,188.479154 67.6146749,188.211877 68.7920493,188.520881 C81.5559612,191.873692 94.0954502,191.871436 106.728543,187.413427 C109.696789,186.365744 113.617988,187.47207 116.977565,188.176916 C132.134569,191.354925 147.144966,195.371982 162.406851,197.874467 C176.944719,200.25741 183.56012,194.633304 183.499221,179.616141 C183.452983,168.117568 180.975309,156.646062 180.040402,145.124934 C179.790041,142.043912 181.234693,138.825304 181.901195,135.66985 C183.080825,135.702555 184.259327,135.73526 185.437829,135.769093 C187.649353,148.546537 190.410093,161.263084 191.850234,174.127366 C192.637406,181.140863 191.825424,188.520881 190.563468,195.525357 C189.190992,203.14333 183.825142,208.393022 175.983873,208.20807 C166.048367,207.97237 156.044067,206.693498 146.267574,204.833833 C136.422287,202.960634 126.905177,199.385656 117.070041,197.444793 C112.950358,196.631683 107.963433,197.110978 104.092983,198.729304 C91.7993445,203.869604 72.6726485,199.666467 64.167133,188.479154" id="Fill-14" fill="#FFFFFF"></path>
            <path d="M217.7845,200.465931 C215.799655,185.877315 214.350492,171.371024 211.741998,157.075623 C208.786157,140.882213 203.522932,125.416204 192.670562,112.488768 C191.133434,110.658425 189.576007,108.655535 187.599056,107.419517 C182.895196,104.479464 182.555743,101.030795 185.757434,96.2186714 C195.071549,101.044328 201.172694,108.877702 206.316377,117.444116 C217.436025,135.958442 222.035003,156.547834 224.740483,177.676293 C225.12843,180.705438 225.125047,183.815781 225.826509,186.764856 C227.61287,194.275693 223.484166,197.873226 217.7845,200.465931" id="Fill-16" fill="#FFFFFF"></path>
        </g>
    </g>
</svg>