<?xml version="1.0" encoding="UTF-8"?>
<svg width="256px" height="256px" viewBox="0 0 256 256" version="1.1" xmlns="http://www.w3.org/2000/svg" xmlns:xlink="http://www.w3.org/1999/xlink">
    <!-- Generator: Sketch 52.6 (67491) - http://www.bohemiancoding.com/sketch -->
    <title>OrdNet favicon</title>
    <desc>Created with Sketch.</desc>
    <defs>
        <polygon id="path-1" points="0 0.0002 255.9998 0.0002 255.9998 256 0 256"></polygon>
        <polygon id="path-3" points="0.854967942 0.139776077 205 0.139776077 205 181 0.854967942 181"></polygon>
    </defs>
    <g id="OrdNet-favicon" stroke="none" stroke-width="1" fill="none" fill-rule="evenodd">
        <g id="Group-11">
            <g id="Group-3">
                <mask id="mask-2" fill="white">
                    <use xlink:href="#path-1"></use>
                </mask>
                <g id="Clip-2"></g>
                <path d="M209.4448,256.0002 L46.5548,256.0002 C20.8438,256.0002 -0.0002,235.1562 -0.0002,209.4442 L-0.0002,46.5552 C-0.0002,20.8432 20.8438,0.0002 46.5548,0.0002 L209.4448,0.0002 C235.1568,0.0002 255.9998,20.8432 255.9998,46.5552 L255.9998,209.4442 C255.9998,235.1562 235.1568,256.0002 209.4448,256.0002" id="Fill-1" fill="#507691" mask="url(#mask-2)"></path>
            </g>
            <g id="Group-6" transform="translate(51.000000, 75.000000)">
                <mask id="mask-4" fill="white">
                    <use xlink:href="#path-3"></use>
                </mask>
                <g id="Clip-5"></g>
                <path d="M198.8413,140.4836 C196.1363,134.9996 193.4313,129.5146 190.7263,124.0306 C190.0773,124.0586 189.4283,124.0866 188.7793,124.1136 C186.8933,130.9676 185.0063,137.8216 183.4673,143.4106 C182.2673,139.3386 180.9023,134.1686 179.1513,129.1316 C178.6923,127.8096 177.0403,126.9016 175.9363,125.8036 C174.8213,126.9366 173.1563,127.8806 172.6913,129.2366 C171.0293,134.0836 169.7193,139.0536 168.3763,144.0046 C166.1843,152.0876 164.0713,160.1916 161.5403,168.1906 C162.2453,153.1006 166.2923,138.2536 164.3083,123.1116 C163.6213,122.8166 162.9343,122.5206 162.2473,122.2246 C159.1823,127.0506 156.1173,131.8766 153.0523,136.7026 C152.8563,136.6456 152.6593,136.5876 152.4633,136.5306 C154.7213,129.8946 157.1603,123.3136 159.1803,116.6056 C160.7433,111.4156 162.4123,106.1256 162.9003,100.7756 C163.5443,93.6916 161.8173,92.7316 155.2063,95.0466 C154.6323,95.2486 154.0613,95.4586 152.8863,95.3036 C166.8823,81.4596 166.9573,63.3176 168.5623,45.6626 C169.2173,45.3076 169.8733,44.9526 170.5293,44.5976 C173.3793,47.3226 177.3253,49.5376 178.8773,52.8676 C183.7473,63.3216 189.2223,73.8606 191.6943,84.9826 C195.7293,103.1406 197.5803,121.7836 200.3523,140.2226 C199.8483,140.3096 199.3443,140.3966 198.8413,140.4836 M126.3103,62.9446 C135.4443,48.9536 135.4443,48.9536 149.8283,54.1296 C150.5863,54.4026 151.3513,54.6566 153.3493,55.3456 C143.8483,58.0156 135.4653,60.3716 126.3103,62.9446 M205.0003,85.5296 C205.0003,84.5116 204.1753,79.3596 203.7633,79.5206 C202.1353,77.3536 200.2603,75.3296 198.9253,72.9956 C194.8133,65.8056 190.8183,58.5456 186.9463,51.2226 C183.5313,44.7646 179.4263,39.1636 171.3043,37.4156 C178.2063,27.4176 185.1793,18.0686 189.2713,6.7316 C187.0613,6.7046 185.2223,7.0596 183.6743,7.9306 C177.6083,11.3456 171.5163,14.7416 165.6643,18.5026 C161.7033,21.0476 159.8773,20.0956 158.5223,15.8306 C157.2213,11.7386 155.5233,7.7416 153.6583,3.8686 C151.3173,-0.9944 148.8083,-1.0984 145.9033,3.5426 C143.4433,7.4706 141.2303,11.5656 139.1083,15.6896 C137.2883,19.2246 134.9783,20.0586 131.4813,17.9996 C126.7683,15.2246 121.9873,12.5586 117.1613,9.9846 C115.5303,9.1146 113.6703,8.6756 111.9173,8.0356 C111.2833,8.8256 111.3113,8.7916 110.6783,9.5806 C117.4253,19.7516 124.1703,29.9186 130.4003,39.3076 C122.9513,44.9606 114.9253,49.8206 108.4373,56.2366 C95.3543,69.1716 93.8183,65.5126 107.1053,83.1686 C113.9403,92.2526 122.8513,96.0176 134.1513,93.6196 C134.8233,93.4766 135.5813,93.7396 137.9703,93.9866 C134.0713,98.3486 131.1643,101.8466 128.0013,105.0936 C117.0133,116.3766 110.1513,128.9916 114.4823,145.3866 C115.1543,147.9306 114.5113,149.6056 111.6493,149.9456 C109.8483,150.1606 108.0293,150.7296 106.2583,150.5986 C92.7273,149.6046 79.0823,149.2696 65.7173,147.1716 C51.7933,144.9876 37.2933,144.4176 24.7433,136.4036 C20.9413,133.9756 17.4163,136.4836 14.5083,139.1846 C10.9923,142.4506 7.6543,145.9136 4.0833,149.1166 C0.5903,152.2516 -0.0897,155.8256 2.1483,159.8066 C4.0953,163.2696 6.2913,166.6006 8.5133,169.8976 C13.5773,177.4086 17.6623,178.5746 26.3433,175.6536 C29.2623,174.6726 32.5943,173.5276 35.4583,174.0356 C43.9373,175.5386 52.0943,177.9686 60.4873,179.9506 C60.4923,179.9526 60.4973,179.9546 60.5023,179.9556 C63.4593,180.5056 63.5613,181.0006 67.1543,181.0006 C71.5853,181.0006 83.2963,180.8166 79.3063,180.8826 L158.9463,180.9956 C185.0623,180.9956 205.0003,160.5606 205.0003,134.4446" id="Fill-4" fill="#FFFFFF" mask="url(#mask-4)"></path>
            </g>
            <path d="M89.0761,158.1881 C94.8201,159.5191 99.1651,162.3691 103.3121,166.4941 C118.2431,181.3441 133.4781,195.8871 148.6721,210.4691 C150.2251,211.9601 152.2711,212.9381 155.4091,215.0391 C152.5521,197.1001 161.3061,185.4431 171.5921,175.4611 C161.2931,169.3161 151.3021,163.8871 141.9081,157.5691 C135.1961,153.0551 129.2471,147.3961 123.0301,142.1621 C118.7161,138.5291 114.8851,134.6881 112.7661,129.0701 C110.5201,123.1121 105.9491,120.7121 100.7271,121.6051 C95.5161,122.4971 90.3411,123.6181 85.1811,124.7751 C80.3141,125.8681 77.8511,128.9811 77.9261,134.0281 C77.9751,137.3461 77.9941,140.6641 78.0341,143.9821 C78.1511,153.6221 79.7521,156.0291 89.0761,158.1881" id="Fill-7" fill="#FFFFFF"></path>
            <path d="M217.6113,164.8522 C221.0033,167.7142 221.0853,172.8262 220.3473,178.0372 C219.9553,180.8062 218.7143,183.4912 218.5883,186.2472 C218.5023,188.1102 219.3993,191.4892 220.3593,191.6822 C225.1463,192.6402 230.1013,193.0692 234.9923,193.0352 C236.8623,193.0212 238.7213,191.2802 241.4903,189.8632 C239.4043,171.2642 236.0083,152.7992 225.8993,135.9122 C223.0763,145.7682 220.4733,154.8592 217.6113,164.8522" id="Fill-9" fill="#FFFFFF"></path>
        </g>
    </g>
</svg>