<?xml version="1.0" encoding="UTF-8"?>
<svg width="256px" height="256px" viewBox="0 0 256 256" version="1.1" xmlns="http://www.w3.org/2000/svg" xmlns:xlink="http://www.w3.org/1999/xlink">
    <!-- Generator: Sketch 52.6 (67491) - http://www.bohemiancoding.com/sketch -->
    <title>Ordbog icon</title>
    <desc>Created with Sketch.</desc>
    <g id="Ordbog-icon" stroke="none" stroke-width="1" fill="none" fill-rule="evenodd">
        <g id="Group-2-Copy-4">
            <circle id="Oval" fill="#FFFFFF" cx="128" cy="128" r="128"></circle>
            <g id="Group">
                <path d="M251.723374,160.933563 C251.009691,152.214627 238.925213,137.281218 237.516245,135.400722 C236.06433,133.462906 235.638365,132.985537 231.971119,126.555957 C228.303873,120.126376 223.943982,115.073547 220.490778,108.525033 C217.445144,102.750036 213.78414,97.7414013 206.540616,96.1782711 C212.696096,87.2376668 218.914896,78.8774238 222.564306,68.7394332 C220.593339,68.7152887 218.953245,69.0327437 217.572677,69.8116261 C212.162775,72.8654532 206.729686,75.9022898 201.510638,79.2655237 C197.978059,81.5413626 196.349559,80.6900469 195.141116,76.8761163 C193.980832,73.2168892 192.466488,69.6426149 190.803206,66.1792261 C188.715409,61.8305406 186.477782,61.7375397 183.886987,65.8877041 C181.69306,69.400276 179.719418,73.0621858 177.826934,76.7500286 C176.203785,79.9111644 174.143634,80.65696 171.02487,78.8157213 C166.821627,76.3342073 162.55774,73.9501654 158.25372,71.6483935 C156.799129,70.8704054 155.140307,70.4778343 153.576911,69.9055212 C153.011484,70.6119702 153.036456,70.5815661 152.471921,71.2871209 C158.489166,80.3824285 164.504627,89.4741592 170.06079,97.8701718 C163.417474,102.925306 156.259566,107.271309 150.473308,113.008748 C138.805364,124.575733 137.435498,121.303712 149.285377,137.092401 C155.381103,145.21567 163.32829,148.582481 173.406082,146.438095 C174.005399,146.310219 174.681414,146.545404 176.81202,146.766281 C173.334735,150.666953 170.742156,153.795002 167.921266,156.698597 C158.121728,166.788298 152.001921,178.069127 155.864481,192.73018 C156.463797,195.005125 155.890344,196.502975 153.337898,196.807017 C151.731694,196.999278 150.109437,197.5081 148.529988,197.390955 C136.4625,196.502081 124.293343,196.202511 112.373901,194.326397 C99.9559201,192.373378 87.0242395,191.863662 75.8316469,184.697228 C72.4408711,182.526015 69.2971349,184.768768 66.7036641,187.184108 C63.5679545,190.104693 60.5909924,193.201444 57.4062316,196.065692 C54.2910343,198.869132 53.6845831,202.065144 55.6805211,205.62511 C57.4169337,208.721861 59.3754144,211.700572 61.357083,214.648879 C65.873361,221.36551 69.5165276,222.408193 77.258591,219.79612 C79.8618721,218.918871 82.8334831,217.894967 85.387713,218.349241 C92.9496247,219.693282 93.2512486,221.881047 100.736462,223.65343 C100.740921,223.655218 105.281588,226.903321 120.144404,231.046931 C135.00722,235.190542 143.389452,237.323283 153.337898,238.440433 C159.970195,239.1852 173.686082,238.338329 194.48556,235.899819 C195.448665,235.899819 196.399622,235.799054 197.338071,235.611229 C177.357178,248.512271 153.553015,256 128,256 C57.307552,256 0,198.692448 0,128 C0,57.307552 57.307552,0 128,0 C198.692448,0 256,57.307552 256,128 C256,139.386274 254.51328,150.425306 251.723374,160.933563 Z M223.861933,173.632806 C223.283129,173.657845 222.704325,173.682883 222.12552,173.707028 C220.44351,179.836144 218.760608,185.96526 217.388066,190.963163 C216.317858,187.321821 215.100496,182.698604 213.538884,178.19432 C213.12953,177.012136 211.65621,176.200167 210.671619,175.218292 C209.677217,176.231465 208.192303,177.075627 207.777598,178.288216 C206.29536,182.622593 205.127049,187.066962 203.929308,191.494341 C201.974395,198.722477 200.089937,205.969392 197.832689,213.122412 C198.461437,199.628342 202.070713,186.351571 200.301303,172.811 C199.688609,172.547199 199.075914,172.282505 198.46322,172.01781 C195.729731,176.333408 192.996241,180.649007 190.262751,184.964606 C190.087951,184.913634 189.912258,184.861768 189.737457,184.810797 C191.751232,178.876625 193.92643,172.991636 195.727947,166.993079 C197.121893,162.351977 198.610374,157.621452 199.045592,152.837272 C199.619937,146.502481 198.079729,145.644011 192.183775,147.714175 C191.671858,147.894811 191.162618,148.082601 190.114706,147.943994 C202.596899,135.564146 202.663787,119.340857 204.09519,103.553062 C204.679345,103.235607 205.264393,102.918153 205.84944,102.600698 C208.391184,105.0375 211.910385,107.01824 213.29452,109.996056 C217.637781,119.344434 222.520606,128.768821 224.725234,138.714551 C228.323809,154.952147 229.974605,171.62345 232.446785,188.112328 C231.997298,188.190127 231.54781,188.267926 231.099215,188.345725 C228.686788,183.441716 226.27436,178.536814 223.861933,173.632806 Z M187.387459,111.124586 C188.063474,111.368714 188.745731,111.59585 190.527628,112.211981 C182.054255,114.5996 174.57796,116.706428 166.413165,119.007306 C174.559232,106.496004 174.559232,106.496004 187.387459,111.124586 Z" id="Combined-Shape" fill="#507691"></path>
                <path d="M86.610259,137.097997 C91.7109316,138.280591 95.5692921,140.812816 99.2518286,144.477878 C112.510558,157.672102 126.03924,170.593557 139.531514,183.549664 C140.910578,184.874417 142.727426,185.74337 145.513971,187.610108 C142.976954,171.671308 150.750507,161.314064 159.884477,152.445057 C150.738963,146.985225 141.866954,142.161559 133.525081,136.548016 C127.564824,132.537327 122.282112,127.509306 116.761415,122.858897 C112.930582,119.630977 109.528654,116.218248 107.646982,111.226656 C105.652533,105.932973 101.593485,103.800573 96.9563483,104.594003 C92.3289797,105.386545 87.7335791,106.382554 83.1514985,107.410548 C78.829602,108.381679 76.6424577,111.147579 76.7090577,115.631838 C76.7525697,118.579881 76.7694417,121.527924 76.8049617,124.475967 C76.9088577,133.041107 78.3305459,135.179726 86.610259,137.097997" id="Fill-7" fill="#FFFFFF"></path>
                <path d="M201.472924,142.198778 C204.492373,144.745416 204.565367,149.294129 203.908423,153.930933 C203.559478,156.394819 202.454779,158.783961 202.342618,161.236279 C202.266064,162.893997 203.064544,165.900668 203.919105,166.072401 C208.180339,166.92484 212.59112,167.306569 216.944931,167.276315 C218.609545,167.263858 220.264367,165.714697 222.729242,164.453835 C220.872352,147.904244 217.849342,131.473888 208.850635,116.447653 C206.337691,125.217629 204.020585,133.306898 201.472924,142.198778" id="Fill-9" fill="#FFFFFF"></path>
            </g>
            <g id="Group-8-Copy" transform="translate(54.527076, 85.949458)"></g>
        </g>
        <rect id="Rectangle" stroke-opacity="0" stroke="#979797" x="0.5" y="0.5" width="255" height="255"></rect>
    </g>
</svg>