<?xml version="1.0" encoding="UTF-8"?>
<svg width="60px" height="41px" viewBox="0 0 60 41" version="1.1" xmlns="http://www.w3.org/2000/svg" xmlns:xlink="http://www.w3.org/1999/xlink">
    <!-- Generator: Sketch 52.6 (67491) - http://www.bohemiancoding.com/sketch -->
    <title>Dansk-Engelsk</title>
    <desc>Created with Sketch.</desc>
    <g id="Dansk-Engelsk" stroke="none" stroke-width="1" fill="none" fill-rule="evenodd">
        <g id="Group-2">
            <g id="denmark-(1)" fill-rule="nonzero">
                <ellipse id="Oval" fill="#F0F0F0" cx="20.0980392" cy="20.5" rx="20.0980392" ry="20.5"></ellipse>
                <g id="Group" transform="translate(0.157016, 0.000000)" fill="#D80027">
                    <path d="M15.571898,17.8261113 L39.8689357,17.8261113 C38.5843099,7.76773828 30.1523189,0 19.9410233,0 C18.4403435,0 16.9787607,0.169205078 15.571898,0.487275391 L15.571898,17.8261113 Z" id="Shape"></path>
                    <path d="M10.3289005,17.8261113 L10.3289005,2.4925918 C4.81034007,5.5639082 0.859662224,11.1974844 0.0131108303,17.8261113 L10.3289005,17.8261113 Z" id="Shape"></path>
                    <path d="M10.3289005,23.1738887 L0.0131108303,23.1738887 C0.859662224,29.8025156 4.81034007,35.4360918 10.3289005,38.5073281 L10.3289005,23.1738887 Z" id="Shape"></path>
                    <path d="M15.571898,23.1738887 L15.571898,40.5127246 C16.9787607,40.8307949 18.4403435,41 19.9410233,41 C30.1523189,41 38.5843099,33.2322617 39.8689357,23.1738887 L15.571898,23.1738887 Z" id="Shape"></path>
                </g>
            </g>
            <g id="Flague-UK" transform="translate(19.000000, 0.000000)">
                <g id="united-kingdom-(1)">
                    <circle id="Oval" fill="#F0F0F0" fill-rule="nonzero" cx="20.5" cy="20.5" r="20.5"></circle>
                    <g id="Group" transform="translate(0.640625, 0.640625)" fill="#0052B4" fill-rule="nonzero">
                        <path d="M3.59710938,7.37855859 C1.98681836,9.47364258 0.77259375,11.8883984 0.0655839844,14.5116777 L10.7302285,14.5116777 L3.59710938,7.37855859 Z" id="Shape"></path>
                        <path d="M39.653166,14.5116777 C38.9461562,11.8884785 37.7318516,9.47372266 36.1216406,7.37863867 L28.9886816,14.5116777 L39.653166,14.5116777 Z" id="Shape"></path>
                        <path d="M0.0655839844,25.2073125 C0.772673828,27.8305117 1.98689844,30.2452676 3.59710937,32.3402715 L10.7299883,25.2073125 L0.0655839844,25.2073125 Z" id="Shape"></path>
                        <path d="M32.3401914,3.59718945 C30.2451074,1.98689844 27.8304316,0.772673828 25.2071523,0.0655839844 L25.2071523,10.7301484 L32.3401914,3.59718945 Z" id="Shape"></path>
                        <path d="M7.37855859,36.1215605 C9.47364258,37.7318516 11.8883984,38.9460762 14.5115977,39.653166 L14.5115977,28.9886816 L7.37855859,36.1215605 Z" id="Shape"></path>
                        <path d="M14.5115176,0.0655839844 C11.8883184,0.772673828 9.4735625,1.98689844 7.37855859,3.59710937 L14.5115176,10.7300684 L14.5115176,0.0655839844 Z" id="Shape"></path>
                        <path d="M25.2072324,39.653166 C27.8304316,38.9460762 30.2451875,37.7318516 32.3401914,36.1216406 L25.2072324,28.9886816 L25.2072324,39.653166 Z" id="Shape"></path>
                        <path d="M28.9886816,25.2073125 L36.1216406,32.3403516 C37.7318516,30.2453477 38.9461562,27.8305117 39.653166,25.2073125 L28.9886816,25.2073125 Z" id="Shape"></path>
                    </g>
                    <g id="Group" fill="#D80027" fill-rule="nonzero">
                        <path d="M40.8264707,17.8261113 L23.1740488,17.8261113 L23.1739688,17.8261113 L23.1739688,0.173529297 C22.2986348,0.059578125 21.4062441,0 20.5,0 C19.5935957,0 18.7013652,0.059578125 17.8261113,0.173529297 L17.8261113,17.8259512 L17.8261113,17.8260312 L0.173529297,17.8260312 C0.059578125,18.7013652 0,19.5937559 0,20.5 C0,21.4064043 0.059578125,22.2986348 0.173529297,23.1738887 L17.8259512,23.1738887 L17.8260312,23.1738887 L17.8260312,40.8264707 C18.7013652,40.9404219 19.5935957,41 20.5,41 C21.4062441,41 22.2986348,40.940502 23.1738887,40.8264707 L23.1738887,23.1740488 L23.1738887,23.1739688 L40.8264707,23.1739688 C40.9404219,22.2986348 41,21.4064043 41,20.5 C41,19.5937559 40.9404219,18.7013652 40.8264707,17.8261113 Z" id="Shape"></path>
                        <path d="M25.8478574,25.8478574 L34.9956621,34.9957422 C35.4163926,34.5751719 35.8177441,34.1354629 36.2006777,33.6796582 L28.368877,25.8478574 L25.8478574,25.8478574 Z" id="Shape"></path>
                        <path d="M15.1521426,25.8479375 L15.1519824,25.8479375 L6.00425781,34.9956621 C6.42482812,35.4163926 6.86453711,35.8177441 7.3203418,36.2006777 L15.1521426,28.3687168 L15.1521426,25.8479375 Z" id="Shape"></path>
                        <path d="M15.1521426,15.1523027 L15.1521426,15.1521426 L6.00433789,6.00425781 C5.58360742,6.42482812 5.18225586,6.86453711 4.79932227,7.3203418 L12.6312031,15.1522227 L15.1521426,15.1523027 Z" id="Shape"></path>
                        <path d="M25.8478574,15.1523027 L34.9957422,6.00433789 C34.5751719,5.58360742 34.1354629,5.18225586 33.6796582,4.79940234 L25.8478574,12.6312832 L25.8478574,15.1523027 Z" id="Shape"></path>
                    </g>
                </g>
            </g>
            <rect id="Rectangle" stroke-opacity="0" stroke="#957272" x="0.5" y="0.5" width="59" height="40"></rect>
        </g>
    </g>
</svg>